<svg width="64" height="64" viewBox="0 0 64 64" fill="none" xmlns="http://www.w3.org/2000/svg">
<path fill-rule="evenodd" clip-rule="evenodd" d="M31.7354 0.000364276C40.9436 0.000364276 49.236 3.92071 55.0352 10.183C53.588 11.0154 52.0828 12.188 50.5208 13.7004C47.4827 16.6336 43.825 21.2723 39.548 27.6231C42.1996 21.6209 43.5216 17.4842 43.5216 15.2136C43.5216 13.2393 43.0404 11.6958 42.0685 10.6034C41.0962 9.51089 39.7433 8.95974 37.9995 8.95974C37.9033 8.95974 37.8068 8.96156 37.7103 8.96484C37.6155 8.96156 37.5194 8.95974 37.4221 8.95974C34.5057 8.95974 31.5493 10.5232 28.5527 13.66C25.8403 16.481 22.5647 21.2275 18.7118 27.8988C19.4334 25.519 19.9831 23.4907 20.3609 21.818C20.8519 19.6432 21.0923 17.8794 21.0923 16.5363C21.0923 14.0611 20.3008 12.1366 18.7271 10.7436C17.1538 9.35061 14.9688 8.65921 12.1628 8.65921C12.0685 8.65921 11.9745 8.65994 11.8809 8.66177C11.7832 8.65994 11.6849 8.65921 11.5858 8.65921C10.9891 8.65921 10.4048 8.69564 9.83328 8.7674C15.5306 3.33604 23.243 0 31.7361 0L31.7354 0.000364276ZM62.8992 25.6611C63.2821 27.6318 63.485 29.667 63.485 31.75C63.485 38.6672 61.2717 45.0665 57.5163 50.2814C57.061 50.1343 56.6752 49.9536 56.3594 49.7394C55.4574 49.1281 55.0065 48.1559 55.0065 46.823C55.0065 45.3699 56.6501 40.7097 59.9472 32.8322L60.4182 31.6899L61.2097 29.8058C61.8319 28.328 62.3947 26.9466 62.8989 25.6611H62.8992ZM53.977 54.404C48.2488 60.0287 40.3979 63.4992 31.7354 63.4992C23.2514 63.4992 15.544 60.1712 9.84894 54.7497C10.2409 54.6987 10.5382 54.6254 10.7392 54.5296C11.1902 54.3293 11.6113 53.7679 12.0022 52.866C12.1825 52.4751 12.8539 50.7011 14.0265 47.5443C15.1991 44.3973 16.3815 41.5312 17.5541 38.9656C20.6811 32.1507 23.918 26.5685 27.2453 22.1888C30.3963 18.051 32.9 15.8726 34.748 15.6533C35.1592 15.7116 35.5089 15.9058 35.7978 16.2358C36.1486 16.6369 36.3289 17.1378 36.3289 17.749C36.3289 18.8615 35.5574 21.5072 34.0238 25.6662C32.4803 29.8353 30.3457 35.0667 27.5998 41.3705C26.8581 43.0742 25.9161 45.2089 24.7737 47.7847C23.3304 50.9918 22.599 52.7756 22.599 53.1064C22.599 53.6976 22.9997 54.1286 23.8117 54.4091C24.6134 54.6997 25.8563 54.84 27.5397 54.84C27.6216 54.84 27.7018 54.8393 27.7804 54.8382C27.8905 54.8396 28.0027 54.84 28.1167 54.84C29.2292 54.84 30.0408 54.7198 30.542 54.4892C31.0433 54.2488 31.4542 53.6874 31.7948 52.7957C32.6366 50.5809 33.5287 48.4061 34.4806 46.2613C35.4328 44.1164 36.4247 42.032 37.4571 39.9976C40.7243 33.4031 44.4024 27.6406 48.4914 22.7199C52.3126 18.11 55.0079 15.6551 56.5692 15.3634C56.8289 15.4206 57.0632 15.5612 57.2646 15.7848C57.5353 16.0956 57.6755 16.4562 57.6755 16.8871C57.6755 17.8291 56.8136 20.3346 55.0797 24.4134L54.7792 25.0848C54.3282 26.127 53.6969 27.5903 52.8751 29.4944C48.9766 38.5543 47.0325 44.3069 47.0325 46.7319C47.0325 49.488 47.9144 51.5123 49.6884 52.7953C50.7433 53.5581 52.1742 54.0943 53.9767 54.4036L53.977 54.404ZM4.72867 48.4477C1.86874 43.8312 0.158825 38.4275 0 32.6355C0.472831 32.8064 0.993746 32.8923 1.56347 32.8923C1.65855 32.8923 1.75217 32.8898 1.84433 32.8843C1.94159 32.8894 2.04031 32.8923 2.14085 32.8923C2.90255 32.8923 3.56408 32.7219 4.12507 32.3813C4.68642 32.0407 5.12719 31.5194 5.46815 30.8378C4.77676 30.3468 4.23544 29.6051 3.83474 28.5928C3.43367 27.5907 3.23332 26.4782 3.23332 25.2655C3.23332 22.4092 3.96478 19.954 5.43828 17.8893C6.83128 15.9236 8.48764 14.8938 10.399 14.7998C11.4729 14.8545 12.3104 15.222 12.9187 15.8952C13.57 16.6267 13.9008 17.6692 13.9008 19.012C13.9008 20.6556 13.4498 23.2612 12.5377 26.8191C11.6255 30.377 10.3928 34.1651 8.84973 38.174C7.90771 40.6795 6.71507 43.6658 5.27181 47.1337C5.07765 47.5982 4.89697 48.036 4.72904 48.4477H4.72867Z" fill="#102647"/>
</svg>
